# xmcd
#
# Track frame offsets: 
#        150
#        16990
#        32654
#        50776
#        70974
#        89027
#        118323
#        131813
#        153978
#        173995
#
# Disc length: 2586 seconds
#
# Revision: 1
# Processed by: cddbd v1.5.2PL0 Copyright (c) Steve Scherf et al.
# Submitted via: ExactAudioCopyFreeDBPlugin 1.0
#
DISCID=910a180a
DTITLE=Tommy Castro - Exception To The Rule
DYEAR=1996
DGENRE=Blues
TTITLE0=This Soul Is Mine
TTITLE1=Exception To The Rule
TTITLE2=Nasty Habits
TTITLE3=Me And My Guitar
TTITLE4=Sho' Enough
TTITLE5=How Long Must I Cry
TTITLE6=Hard Luck Case
TTITLE7=Had Enough
TTITLE8=Leave This Town
TTITLE9=Can't Quit The Blues
EXTD=YEAR: 1996
EXTT0=
EXTT1=
EXTT2=
EXTT3=
EXTT4=
EXTT5=
EXTT6=
EXTT7=
EXTT8=
EXTT9=
PLAYORDER=
